<svg width="195" height="75" viewBox="0 0 195 75" fill="none" xmlns="http://www.w3.org/2000/svg">
<path d="M9.83602 41.288C6.86002 41.288 4.52002 40.448 2.81602 38.768C1.13602 37.088 0.296021 34.796 0.296021 31.892C0.296021 29.996 0.70402 28.328 1.52002 26.888C2.33602 25.424 3.47602 24.296 4.94002 23.504C6.42802 22.688 8.14402 22.28 10.088 22.28C11.408 22.28 12.692 22.484 13.94 22.892C15.188 23.3 16.184 23.852 16.928 24.548L15.488 28.328C14.768 27.752 13.976 27.308 13.112 26.996C12.248 26.66 11.408 26.492 10.592 26.492C9.10402 26.492 7.94002 26.948 7.10002 27.86C6.28402 28.748 5.87602 30.056 5.87602 31.784C5.87602 33.536 6.28402 34.868 7.10002 35.78C7.91602 36.668 9.08002 37.112 10.592 37.112C11.408 37.112 12.248 36.956 13.112 36.644C13.976 36.308 14.768 35.852 15.488 35.276L16.928 39.056C16.136 39.752 15.104 40.304 13.832 40.712C12.56 41.096 11.228 41.288 9.83602 41.288Z" fill="#5F6979"/>
<path d="M35.4964 22.748V41H30.2044V38.336C29.6284 39.296 28.8724 40.028 27.9364 40.532C27.0004 41.036 25.9444 41.288 24.7684 41.288C22.4884 41.288 20.7844 40.652 19.6564 39.38C18.5284 38.108 17.9644 36.188 17.9644 33.62V22.748H23.4004V33.728C23.4004 35.936 24.3484 37.04 26.2444 37.04C27.3724 37.04 28.2844 36.656 28.9804 35.888C29.6764 35.12 30.0244 34.112 30.0244 32.864V22.748H35.4964Z" fill="#5F6979"/>
<path d="M49.0845 22.316C49.8525 22.316 50.5005 22.436 51.0285 22.676L50.9925 27.644C50.1045 27.236 49.2165 27.032 48.3285 27.032C46.8885 27.032 45.7845 27.428 45.0165 28.22C44.2725 28.988 43.9005 30.068 43.9005 31.46V41H38.4645V27.968C38.4645 26.024 38.3685 24.284 38.1765 22.748H43.2885L43.6485 25.88C44.1045 24.728 44.8125 23.852 45.7725 23.252C46.7565 22.628 47.8605 22.316 49.0845 22.316Z" fill="#5F6979"/>
<path d="M51.7901 22.748H57.2261V41H51.7901V22.748ZM57.4061 15.18V20.292H51.6101V15.18H57.4061Z" fill="#5F6979"/>
<path d="M67.941 41.288C65.997 41.288 64.293 40.904 62.829 40.136C61.389 39.368 60.273 38.264 59.481 36.824C58.713 35.384 58.329 33.704 58.329 31.784C58.329 29.864 58.713 28.184 59.481 26.744C60.273 25.304 61.389 24.2 62.829 23.432C64.293 22.664 65.997 22.28 67.941 22.28C69.861 22.28 71.541 22.664 72.981 23.432C74.421 24.2 75.525 25.304 76.293 26.744C77.085 28.184 77.481 29.864 77.481 31.784C77.481 33.704 77.085 35.384 76.293 36.824C75.525 38.264 74.421 39.368 72.981 40.136C71.541 40.904 69.861 41.288 67.941 41.288ZM67.941 37.148C69.285 37.148 70.305 36.704 71.001 35.816C71.721 34.928 72.081 33.584 72.081 31.784C72.081 30.008 71.721 28.676 71.001 27.788C70.305 26.876 69.285 26.42 67.941 26.42C66.573 26.42 65.529 26.876 64.809 27.788C64.089 28.676 63.729 30.008 63.729 31.784C63.729 35.36 65.133 37.148 67.941 37.148Z" fill="#5F6979"/>
<path d="M96.9396 22.748V41H91.6476V38.336C91.0716 39.296 90.3156 40.028 89.3796 40.532C88.4436 41.036 87.3876 41.288 86.2116 41.288C83.9316 41.288 82.2276 40.652 81.0996 39.38C79.9716 38.108 79.4076 36.188 79.4076 33.62V22.748H84.8436V33.728C84.8436 35.936 85.7916 37.04 87.6876 37.04C88.8156 37.04 89.7276 36.656 90.4236 35.888C91.1196 35.12 91.4676 34.112 91.4676 32.864V22.748H96.9396Z" fill="#5F6979"/>
<path d="M106.892 41.288C103.436 41.288 100.712 40.544 98.7196 39.056L100.16 35.276C101.12 35.972 102.188 36.512 103.364 36.896C104.54 37.256 105.74 37.436 106.964 37.436C107.9 37.436 108.62 37.292 109.124 37.004C109.628 36.716 109.88 36.296 109.88 35.744C109.88 35.288 109.7 34.928 109.34 34.664C108.98 34.4 108.344 34.172 107.432 33.98L104.444 33.296C102.692 32.912 101.396 32.3 100.556 31.46C99.7396 30.62 99.3316 29.504 99.3316 28.112C99.3316 26.984 99.6556 25.976 100.304 25.088C100.976 24.2 101.9 23.516 103.076 23.036C104.252 22.532 105.608 22.28 107.144 22.28C108.44 22.28 109.712 22.484 110.96 22.892C112.208 23.276 113.324 23.828 114.308 24.548L112.796 28.184C111.86 27.536 110.9 27.044 109.916 26.708C108.956 26.372 108.02 26.204 107.108 26.204C106.22 26.204 105.524 26.36 105.02 26.672C104.516 26.984 104.264 27.416 104.264 27.968C104.264 28.376 104.408 28.712 104.696 28.976C105.008 29.216 105.548 29.42 106.316 29.588L109.376 30.272C111.248 30.704 112.604 31.352 113.444 32.216C114.284 33.08 114.704 34.232 114.704 35.672C114.704 37.4 114.008 38.768 112.616 39.776C111.224 40.784 109.316 41.288 106.892 41.288Z" fill="#5F6979"/>
<path d="M121.833 35.204V41H115.965V35.204H121.833Z" fill="#5F6979"/>
<path d="M146.699 22.28C148.787 22.28 150.335 22.916 151.343 24.188C152.375 25.436 152.891 27.356 152.891 29.948V41H147.455V30.128C147.455 28.856 147.251 27.944 146.843 27.392C146.435 26.816 145.763 26.528 144.827 26.528C143.723 26.528 142.871 26.912 142.271 27.68C141.671 28.448 141.371 29.528 141.371 30.92V41H135.935V30.128C135.935 28.88 135.719 27.968 135.287 27.392C134.879 26.816 134.219 26.528 133.307 26.528C132.203 26.528 131.339 26.912 130.715 27.68C130.115 28.448 129.815 29.528 129.815 30.92V41H124.379V27.968C124.379 26.024 124.283 24.284 124.091 22.748H129.203L129.527 25.484C130.079 24.452 130.847 23.66 131.831 23.108C132.839 22.556 133.991 22.28 135.287 22.28C137.999 22.28 139.799 23.408 140.687 25.664C141.287 24.632 142.115 23.816 143.171 23.216C144.251 22.592 145.427 22.28 146.699 22.28Z" fill="#5F6979"/>
<path d="M172.12 32.324H160.096C160.192 34.028 160.636 35.276 161.428 36.068C162.22 36.836 163.396 37.22 164.956 37.22C165.892 37.22 166.828 37.064 167.764 36.752C168.7 36.44 169.564 35.984 170.356 35.384L171.796 39.056C170.932 39.752 169.852 40.304 168.556 40.712C167.284 41.096 166 41.288 164.704 41.288C161.632 41.288 159.22 40.448 157.468 38.768C155.716 37.064 154.84 34.748 154.84 31.82C154.84 29.972 155.212 28.328 155.956 26.888C156.724 25.424 157.792 24.296 159.16 23.504C160.528 22.688 162.076 22.28 163.804 22.28C166.372 22.28 168.4 23.12 169.888 24.8C171.376 26.456 172.12 28.7 172.12 31.532V32.324ZM163.948 26.096C162.916 26.096 162.076 26.396 161.428 26.996C160.804 27.596 160.396 28.472 160.204 29.624H167.44C167.152 27.272 165.988 26.096 163.948 26.096Z" fill="#5F6979"/>
<path d="M119.084 15.9024V8.73438C119.084 5.56737 121.652 3 124.819 3H186.463C189.63 3 192.198 5.56737 192.198 8.73438V48.8751C192.198 52.0421 189.63 54.6094 186.463 54.6094H176.428L179.782 70.2603C180.075 71.6282 178.436 72.563 177.408 71.6141L162.092 57.4766H124.819C121.652 57.4766 119.084 54.9093 119.084 51.7422V48.8751" stroke="url(#paint0_linear_12521:2155)" stroke-width="5.3"/>
<defs>
<linearGradient id="paint0_linear_12521:2155" x1="119.084" y1="3" x2="204.891" y2="47.5519" gradientUnits="userSpaceOnUse">
<stop stop-color="#1F8BFF"/>
<stop offset="1" stop-color="#007AFF"/>
</linearGradient>
</defs>
</svg>
